<svg width="14" height="15" viewBox="0 0 14 15" fill="none" xmlns="http://www.w3.org/2000/svg">
<path d="M4.50192 6.39696L8.9367 3.869M4.50192 8.33011L8.9367 10.8581M0.671875 7.36354C0.671875 7.95512 0.884255 8.52247 1.26229 8.94078C1.64033 9.35909 2.15306 9.59409 2.68769 9.59409C3.22231 9.59409 3.73504 9.35909 4.11308 8.94078C4.49112 8.52247 4.7035 7.95512 4.7035 7.36354C4.7035 6.77196 4.49112 6.20461 4.11308 5.7863C3.73504 5.36799 3.22231 5.13298 2.68769 5.13298C2.15306 5.13298 1.64033 5.36799 1.26229 5.7863C0.884255 6.20461 0.671875 6.77196 0.671875 7.36354ZM8.73512 2.90243C8.73512 3.49401 8.9475 4.06136 9.32554 4.47967C9.70357 4.89798 10.2163 5.13298 10.7509 5.13298C11.2856 5.13298 11.7983 4.89798 12.1763 4.47967C12.5544 4.06136 12.7667 3.49401 12.7667 2.90243C12.7667 2.31085 12.5544 1.7435 12.1763 1.32519C11.7983 0.906879 11.2856 0.671875 10.7509 0.671875C10.2163 0.671875 9.70357 0.906879 9.32554 1.32519C8.9475 1.7435 8.73512 2.31085 8.73512 2.90243ZM8.73512 11.8246C8.73512 12.4162 8.9475 12.9836 9.32554 13.4019C9.70357 13.8202 10.2163 14.0552 10.7509 14.0552C11.2856 14.0552 11.7983 13.8202 12.1763 13.4019C12.5544 12.9836 12.7667 12.4162 12.7667 11.8246C12.7667 11.2331 12.5544 10.6657 12.1763 10.2474C11.7983 9.82909 11.2856 9.59409 10.7509 9.59409C10.2163 9.59409 9.70357 9.82909 9.32554 10.2474C8.9475 10.6657 8.73512 11.2331 8.73512 11.8246Z" stroke="black" stroke-width="1.34387" stroke-linecap="round" stroke-linejoin="round"/>
</svg>
