<svg width="11" height="13" viewBox="0 0 11 13" fill="none" xmlns="http://www.w3.org/2000/svg">
<path d="M9.94971 4.02571L9.32724 1.86854C9.28431 1.72544 9.20382 1.60739 9.08576 1.51438C8.96771 1.42136 8.82998 1.37486 8.67257 1.37486H2.31911C2.16171 1.37486 2.02398 1.42136 1.90592 1.51438C1.78787 1.60739 1.70738 1.72544 1.66445 1.86854L1.04198 4.02571C1.04198 4.04002 1.04019 4.05612 1.03662 4.07401C1.03304 4.09189 1.03125 4.10799 1.03125 4.1223V4.80916C1.03125 5.0882 1.09385 5.34756 1.21906 5.58725C1.34427 5.82693 1.51062 6.02548 1.71811 6.18288V9.27376C1.71811 9.36677 1.7521 9.44726 1.82007 9.51523C1.88804 9.5832 1.96853 9.61719 2.06154 9.61719H8.93015C9.02316 9.61719 9.10365 9.5832 9.17162 9.51523C9.23959 9.44726 9.27358 9.36677 9.27358 9.27376V6.18288C9.48107 6.02548 9.64742 5.82693 9.77262 5.58725C9.89783 5.34756 9.96044 5.0882 9.96044 4.80916V4.1223C9.96044 4.10799 9.95865 4.09189 9.95507 4.07401C9.9515 4.05612 9.94971 4.04002 9.94971 4.02571ZM3.77869 4.80916C3.77869 5.09535 3.67853 5.33862 3.47819 5.53895C3.27786 5.73929 3.03459 5.83945 2.7484 5.83945C2.66254 5.83945 2.57848 5.82872 2.4962 5.80726C2.41391 5.78579 2.337 5.75717 2.26545 5.7214H2.27619C2.26188 5.71424 2.24757 5.70709 2.23326 5.69993C2.21895 5.69278 2.20464 5.68563 2.19033 5.67847C2.04723 5.58546 1.93275 5.46204 1.8469 5.30821C1.76104 5.15438 1.71811 4.98803 1.71811 4.80916V4.46573H3.77869V4.80916ZM6.52614 4.80916C6.52614 5.09535 6.42597 5.33862 6.22563 5.53895C6.0253 5.73929 5.78204 5.83945 5.49584 5.83945C5.20965 5.83945 4.96639 5.73929 4.76605 5.53895C4.56572 5.33862 4.46555 5.09535 4.46555 4.80916V4.46573H6.52614V4.80916ZM9.27358 4.80916C9.27358 4.98803 9.23065 5.15438 9.14479 5.30821C9.05893 5.46204 8.94446 5.58546 8.80136 5.67847C8.78705 5.68563 8.77274 5.69278 8.75843 5.69993C8.74412 5.70709 8.72981 5.71424 8.7155 5.7214H8.72624C8.65469 5.75717 8.57777 5.78579 8.49549 5.80726C8.41321 5.82872 8.32914 5.83945 8.24329 5.83945C7.9571 5.83945 7.71383 5.73929 7.5135 5.53895C7.31316 5.33862 7.213 5.09535 7.213 4.80916V4.46573H9.27358V4.80916Z" fill="#299E60"/>
</svg>
