<svg width="62" height="42" viewBox="0 0 62 42" fill="none" xmlns="http://www.w3.org/2000/svg">
<path d="M0.528066 32.2164C0.528066 31.4611 0.696733 30.7864 1.03407 30.1924C1.37873 29.5911 1.8444 29.1254 2.43107 28.7954C3.02507 28.4581 3.68873 28.2894 4.42207 28.2894C5.28007 28.2894 6.03173 28.5094 6.67707 28.9494C7.3224 29.3894 7.7734 29.9981 8.03007 30.7754H6.25907C6.08307 30.4087 5.83373 30.1337 5.51107 29.9504C5.19573 29.7671 4.82907 29.6754 4.41107 29.6754C3.96373 29.6754 3.56407 29.7817 3.21207 29.9944C2.8674 30.1997 2.59607 30.4931 2.39807 30.8744C2.2074 31.2557 2.11207 31.7031 2.11207 32.2164C2.11207 32.7224 2.2074 33.1697 2.39807 33.5584C2.59607 33.9397 2.8674 34.2367 3.21207 34.4494C3.56407 34.6547 3.96373 34.7574 4.41107 34.7574C4.82907 34.7574 5.19573 34.6657 5.51107 34.4824C5.83373 34.2917 6.08307 34.0131 6.25907 33.6464H8.03007C7.7734 34.4311 7.3224 35.0434 6.67707 35.4834C6.03907 35.9161 5.2874 36.1324 4.42207 36.1324C3.68873 36.1324 3.02507 35.9674 2.43107 35.6374C1.8444 35.3001 1.37873 34.8344 1.03407 34.2404C0.696733 33.6464 0.528066 32.9717 0.528066 32.2164ZM8.94943 32.9974C8.94943 32.3814 9.07043 31.8351 9.31243 31.3584C9.56176 30.8817 9.89543 30.5151 10.3134 30.2584C10.7388 30.0017 11.2118 29.8734 11.7324 29.8734C12.1871 29.8734 12.5831 29.9651 12.9204 30.1484C13.2651 30.3317 13.5401 30.5627 13.7454 30.8414V29.9724H15.2964V36.0664H13.7454V35.1754C13.5474 35.4614 13.2724 35.6997 12.9204 35.8904C12.5758 36.0737 12.1761 36.1654 11.7214 36.1654C11.2081 36.1654 10.7388 36.0334 10.3134 35.7694C9.89543 35.5054 9.56176 35.1351 9.31243 34.6584C9.07043 34.1744 8.94943 33.6207 8.94943 32.9974ZM13.7454 33.0194C13.7454 32.6454 13.6721 32.3264 13.5254 32.0624C13.3788 31.7911 13.1808 31.5857 12.9314 31.4464C12.6821 31.2997 12.4144 31.2264 12.1284 31.2264C11.8424 31.2264 11.5784 31.2961 11.3364 31.4354C11.0944 31.5747 10.8964 31.7801 10.7424 32.0514C10.5958 32.3154 10.5224 32.6307 10.5224 32.9974C10.5224 33.3641 10.5958 33.6867 10.7424 33.9654C10.8964 34.2367 11.0944 34.4457 11.3364 34.5924C11.5858 34.7391 11.8498 34.8124 12.1284 34.8124C12.4144 34.8124 12.6821 34.7427 12.9314 34.6034C13.1808 34.4567 13.3788 34.2514 13.5254 33.9874C13.6721 33.7161 13.7454 33.3934 13.7454 33.0194ZM18.5935 31.2374V34.1854C18.5935 34.3907 18.6412 34.5411 18.7365 34.6364C18.8392 34.7244 19.0078 34.7684 19.2425 34.7684H19.9575V36.0664H18.9895C17.6915 36.0664 17.0425 35.4357 17.0425 34.1744V31.2374H16.3165V29.9724H17.0425V28.4654H18.5935V29.9724H19.9575V31.2374H18.5935ZM26.7302 32.8874C26.7302 33.1074 26.7155 33.3054 26.6862 33.4814H22.2312C22.2678 33.9214 22.4218 34.2661 22.6932 34.5154C22.9645 34.7647 23.2982 34.8894 23.6942 34.8894C24.2662 34.8894 24.6732 34.6437 24.9152 34.1524H26.5762C26.4002 34.7391 26.0628 35.2231 25.5642 35.6044C25.0655 35.9784 24.4532 36.1654 23.7272 36.1654C23.1405 36.1654 22.6125 36.0371 22.1432 35.7804C21.6812 35.5164 21.3182 35.1461 21.0542 34.6694C20.7975 34.1927 20.6692 33.6427 20.6692 33.0194C20.6692 32.3887 20.7975 31.8351 21.0542 31.3584C21.3108 30.8817 21.6702 30.5151 22.1322 30.2584C22.5942 30.0017 23.1258 29.8734 23.7272 29.8734C24.3065 29.8734 24.8235 29.9981 25.2782 30.2474C25.7402 30.4967 26.0958 30.8524 26.3452 31.3144C26.6018 31.7691 26.7302 32.2934 26.7302 32.8874ZM25.1352 32.4474C25.1278 32.0514 24.9848 31.7361 24.7062 31.5014C24.4275 31.2594 24.0865 31.1384 23.6832 31.1384C23.3018 31.1384 22.9792 31.2557 22.7152 31.4904C22.4585 31.7177 22.3008 32.0367 22.2422 32.4474H25.1352ZM30.2412 29.8734C30.6959 29.8734 31.0955 29.9651 31.4402 30.1484C31.7849 30.3244 32.0562 30.5554 32.2542 30.8414V29.9724H33.8052V36.1104C33.8052 36.6751 33.6915 37.1774 33.4642 37.6174C33.2369 38.0647 32.8959 38.4167 32.4412 38.6734C31.9865 38.9374 31.4365 39.0694 30.7912 39.0694C29.9259 39.0694 29.2145 38.8677 28.6572 38.4644C28.1072 38.0611 27.7955 37.5111 27.7222 36.8144H29.2512C29.3319 37.0931 29.5042 37.3131 29.7682 37.4744C30.0395 37.6431 30.3659 37.7274 30.7472 37.7274C31.1945 37.7274 31.5575 37.5917 31.8362 37.3204C32.1149 37.0564 32.2542 36.6531 32.2542 36.1104V35.1644C32.0562 35.4504 31.7812 35.6887 31.4292 35.8794C31.0845 36.0701 30.6885 36.1654 30.2412 36.1654C29.7279 36.1654 29.2585 36.0334 28.8332 35.7694C28.4079 35.5054 28.0705 35.1351 27.8212 34.6584C27.5792 34.1744 27.4582 33.6207 27.4582 32.9974C27.4582 32.3814 27.5792 31.8351 27.8212 31.3584C28.0705 30.8817 28.4042 30.5151 28.8222 30.2584C29.2475 30.0017 29.7205 29.8734 30.2412 29.8734ZM32.2542 33.0194C32.2542 32.6454 32.1809 32.3264 32.0342 32.0624C31.8875 31.7911 31.6895 31.5857 31.4402 31.4464C31.1909 31.2997 30.9232 31.2264 30.6372 31.2264C30.3512 31.2264 30.0872 31.2961 29.8452 31.4354C29.6032 31.5747 29.4052 31.7801 29.2512 32.0514C29.1045 32.3154 29.0312 32.6307 29.0312 32.9974C29.0312 33.3641 29.1045 33.6867 29.2512 33.9654C29.4052 34.2367 29.6032 34.4457 29.8452 34.5924C30.0945 34.7391 30.3585 34.8124 30.6372 34.8124C30.9232 34.8124 31.1909 34.7427 31.4402 34.6034C31.6895 34.4567 31.8875 34.2514 32.0342 33.9874C32.1809 33.7161 32.2542 33.3934 32.2542 33.0194ZM38.0153 36.1654C37.4286 36.1654 36.9006 36.0371 36.4313 35.7804C35.962 35.5164 35.5916 35.1461 35.3203 34.6694C35.0563 34.1927 34.9243 33.6427 34.9243 33.0194C34.9243 32.3961 35.06 31.8461 35.3313 31.3694C35.61 30.8927 35.9876 30.5261 36.4643 30.2694C36.941 30.0054 37.4726 29.8734 38.0593 29.8734C38.646 29.8734 39.1776 30.0054 39.6543 30.2694C40.131 30.5261 40.505 30.8927 40.7763 31.3694C41.055 31.8461 41.1943 32.3961 41.1943 33.0194C41.1943 33.6427 41.0513 34.1927 40.7653 34.6694C40.4866 35.1461 40.1053 35.5164 39.6213 35.7804C39.1446 36.0371 38.6093 36.1654 38.0153 36.1654ZM38.0153 34.8234C38.294 34.8234 38.5543 34.7574 38.7963 34.6254C39.0456 34.4861 39.2436 34.2807 39.3903 34.0094C39.537 33.7381 39.6103 33.4081 39.6103 33.0194C39.6103 32.4401 39.4563 31.9964 39.1483 31.6884C38.8476 31.3731 38.4773 31.2154 38.0373 31.2154C37.5973 31.2154 37.227 31.3731 36.9263 31.6884C36.633 31.9964 36.4863 32.4401 36.4863 33.0194C36.4863 33.5987 36.6293 34.0461 36.9153 34.3614C37.2086 34.6694 37.5753 34.8234 38.0153 34.8234ZM43.8639 30.9184C44.0619 30.5957 44.3186 30.3427 44.6339 30.1594C44.9566 29.9761 45.3233 29.8844 45.7339 29.8844V31.5014H45.3269C44.8429 31.5014 44.4763 31.6151 44.2269 31.8424C43.9849 32.0697 43.8639 32.4657 43.8639 33.0304V36.0664H42.3239V29.9724H43.8639V30.9184ZM47.5522 29.2464C47.2809 29.2464 47.0535 29.1621 46.8702 28.9934C46.6942 28.8174 46.6062 28.6011 46.6062 28.3444C46.6062 28.0877 46.6942 27.8751 46.8702 27.7064C47.0535 27.5304 47.2809 27.4424 47.5522 27.4424C47.8235 27.4424 48.0472 27.5304 48.2232 27.7064C48.4065 27.8751 48.4982 28.0877 48.4982 28.3444C48.4982 28.6011 48.4065 28.8174 48.2232 28.9934C48.0472 29.1621 47.8235 29.2464 47.5522 29.2464ZM48.3112 29.9724V36.0664H46.7712V29.9724H48.3112ZM55.4977 32.8874C55.4977 33.1074 55.4831 33.3054 55.4537 33.4814H50.9987C51.0354 33.9214 51.1894 34.2661 51.4607 34.5154C51.7321 34.7647 52.0657 34.8894 52.4617 34.8894C53.0337 34.8894 53.4407 34.6437 53.6827 34.1524H55.3437C55.1677 34.7391 54.8304 35.2231 54.3317 35.6044C53.8331 35.9784 53.2207 36.1654 52.4947 36.1654C51.9081 36.1654 51.3801 36.0371 50.9107 35.7804C50.4487 35.5164 50.0857 35.1461 49.8217 34.6694C49.5651 34.1927 49.4367 33.6427 49.4367 33.0194C49.4367 32.3887 49.5651 31.8351 49.8217 31.3584C50.0784 30.8817 50.4377 30.5151 50.8997 30.2584C51.3617 30.0017 51.8934 29.8734 52.4947 29.8734C53.0741 29.8734 53.5911 29.9981 54.0457 30.2474C54.5077 30.4967 54.8634 30.8524 55.1127 31.3144C55.3694 31.7691 55.4977 32.2934 55.4977 32.8874ZM53.9027 32.4474C53.8954 32.0514 53.7524 31.7361 53.4737 31.5014C53.1951 31.2594 52.8541 31.1384 52.4507 31.1384C52.0694 31.1384 51.7467 31.2557 51.4827 31.4904C51.2261 31.7177 51.0684 32.0367 51.0097 32.4474H53.9027ZM58.9538 36.1654C58.4551 36.1654 58.0078 36.0774 57.6118 35.9014C57.2158 35.7181 56.9005 35.4724 56.6658 35.1644C56.4385 34.8564 56.3138 34.5154 56.2918 34.1414H57.8428C57.8721 34.3761 57.9858 34.5704 58.1838 34.7244C58.3891 34.8784 58.6421 34.9554 58.9428 34.9554C59.2361 34.9554 59.4635 34.8967 59.6248 34.7794C59.7935 34.6621 59.8778 34.5117 59.8778 34.3284C59.8778 34.1304 59.7751 33.9837 59.5698 33.8884C59.3718 33.7857 59.0528 33.6757 58.6128 33.5584C58.1581 33.4484 57.7841 33.3347 57.4908 33.2174C57.2048 33.1001 56.9555 32.9204 56.7428 32.6784C56.5375 32.4364 56.4348 32.1101 56.4348 31.6994C56.4348 31.3621 56.5301 31.0541 56.7208 30.7754C56.9188 30.4967 57.1975 30.2767 57.5568 30.1154C57.9235 29.9541 58.3525 29.8734 58.8438 29.8734C59.5698 29.8734 60.1491 30.0567 60.5818 30.4234C61.0145 30.7827 61.2528 31.2704 61.2968 31.8864H59.8228C59.8008 31.6444 59.6981 31.4537 59.5148 31.3144C59.3388 31.1677 59.1005 31.0944 58.7998 31.0944C58.5211 31.0944 58.3048 31.1457 58.1508 31.2484C58.0041 31.3511 57.9308 31.4941 57.9308 31.6774C57.9308 31.8827 58.0335 32.0404 58.2388 32.1504C58.4441 32.2531 58.7631 32.3594 59.1958 32.4694C59.6358 32.5794 59.9988 32.6931 60.2848 32.8104C60.5708 32.9277 60.8165 33.1111 61.0218 33.3604C61.2345 33.6024 61.3445 33.9251 61.3518 34.3284C61.3518 34.6804 61.2528 34.9957 61.0548 35.2744C60.8641 35.5531 60.5855 35.7731 60.2188 35.9344C59.8595 36.0884 59.4378 36.1654 58.9538 36.1654Z" fill="#181725"/>
<path d="M24.625 6.25C24.4592 6.25 24.3003 6.18415 24.1831 6.06694C24.0658 5.94973 24 5.79076 24 5.625V0.625C24 0.45924 24.0658 0.300269 24.1831 0.183058C24.3003 0.0658481 24.4592 0 24.625 0H29.625C29.7908 0 29.9497 0.0658481 30.0669 0.183058C30.1842 0.300269 30.25 0.45924 30.25 0.625V5.625C30.25 5.79076 30.1842 5.94973 30.0669 6.06694C29.9497 6.18415 29.7908 6.25 29.625 6.25H24.625ZM33.375 6.25C33.2092 6.25 33.0503 6.18415 32.9331 6.06694C32.8158 5.94973 32.75 5.79076 32.75 5.625V0.625C32.75 0.45924 32.8158 0.300269 32.9331 0.183058C33.0503 0.0658481 33.2092 0 33.375 0H38.375C38.5408 0 38.6997 0.0658481 38.8169 0.183058C38.9342 0.300269 39 0.45924 39 0.625V5.625C39 5.79076 38.9342 5.94973 38.8169 6.06694C38.6997 6.18415 38.5408 6.25 38.375 6.25H33.375ZM24.625 15C24.4592 15 24.3003 14.9342 24.1831 14.8169C24.0658 14.6997 24 14.5408 24 14.375V9.375C24 9.20924 24.0658 9.05027 24.1831 8.93306C24.3003 8.81585 24.4592 8.75 24.625 8.75H29.625C29.7908 8.75 29.9497 8.81585 30.0669 8.93306C30.1842 9.05027 30.25 9.20924 30.25 9.375V14.375C30.25 14.5408 30.1842 14.6997 30.0669 14.8169C29.9497 14.9342 29.7908 15 29.625 15H24.625ZM33.375 15C33.2092 15 33.0503 14.9342 32.9331 14.8169C32.8158 14.6997 32.75 14.5408 32.75 14.375V9.375C32.75 9.20924 32.8158 9.05027 32.9331 8.93306C33.0503 8.81585 33.2092 8.75 33.375 8.75H38.375C38.5408 8.75 38.6997 8.81585 38.8169 8.93306C38.9342 9.05027 39 9.20924 39 9.375V14.375C39 14.5408 38.9342 14.6997 38.8169 14.8169C38.6997 14.9342 38.5408 15 38.375 15H33.375Z" fill="black"/>
</svg>
