<svg width="34" height="44" viewBox="0 0 34 44" fill="none" xmlns="http://www.w3.org/2000/svg">
<path d="M7.52058 31.197V38.875H5.98058V35.608H2.69158V38.875H1.15158V31.197H2.69158V34.354H5.98058V31.197H7.52058ZM11.7423 38.974C11.1557 38.974 10.6277 38.8457 10.1583 38.589C9.68901 38.325 9.31868 37.9547 9.04734 37.478C8.78334 37.0013 8.65134 36.4513 8.65134 35.828C8.65134 35.2047 8.78701 34.6547 9.05834 34.178C9.33701 33.7013 9.71468 33.3347 10.1913 33.078C10.668 32.814 11.1997 32.682 11.7863 32.682C12.373 32.682 12.9047 32.814 13.3813 33.078C13.858 33.3347 14.232 33.7013 14.5033 34.178C14.782 34.6547 14.9213 35.2047 14.9213 35.828C14.9213 36.4513 14.7783 37.0013 14.4923 37.478C14.2137 37.9547 13.8323 38.325 13.3483 38.589C12.8717 38.8457 12.3363 38.974 11.7423 38.974ZM11.7423 37.632C12.021 37.632 12.2813 37.566 12.5233 37.434C12.7727 37.2947 12.9707 37.0893 13.1173 36.818C13.264 36.5467 13.3373 36.2167 13.3373 35.828C13.3373 35.2487 13.1833 34.805 12.8753 34.497C12.5747 34.1817 12.2043 34.024 11.7643 34.024C11.3243 34.024 10.954 34.1817 10.6533 34.497C10.36 34.805 10.2133 35.2487 10.2133 35.828C10.2133 36.4073 10.3563 36.8547 10.6423 37.17C10.9357 37.478 11.3023 37.632 11.7423 37.632ZM23.619 32.693C24.367 32.693 24.9683 32.924 25.423 33.386C25.885 33.8407 26.116 34.4787 26.116 35.3V38.875H24.576V35.509C24.576 35.0323 24.455 34.6693 24.213 34.42C23.971 34.1633 23.641 34.035 23.223 34.035C22.805 34.035 22.4713 34.1633 22.222 34.42C21.98 34.6693 21.859 35.0323 21.859 35.509V38.875H20.319V35.509C20.319 35.0323 20.198 34.6693 19.956 34.42C19.714 34.1633 19.384 34.035 18.966 34.035C18.5407 34.035 18.2033 34.1633 17.954 34.42C17.712 34.6693 17.591 35.0323 17.591 35.509V38.875H16.051V32.781H17.591V33.518C17.789 33.2613 18.042 33.0597 18.35 32.913C18.6653 32.7663 19.01 32.693 19.384 32.693C19.8607 32.693 20.286 32.7957 20.66 33.001C21.034 33.199 21.3237 33.485 21.529 33.859C21.727 33.507 22.013 33.2247 22.387 33.012C22.7683 32.7993 23.179 32.693 23.619 32.693ZM33.2424 35.696C33.2424 35.916 33.2277 36.114 33.1984 36.29H28.7434C28.78 36.73 28.934 37.0747 29.2054 37.324C29.4767 37.5733 29.8104 37.698 30.2064 37.698C30.7784 37.698 31.1854 37.4523 31.4274 36.961H33.0884C32.9124 37.5477 32.575 38.0317 32.0764 38.413C31.5777 38.787 30.9654 38.974 30.2394 38.974C29.6527 38.974 29.1247 38.8457 28.6554 38.589C28.1934 38.325 27.8304 37.9547 27.5664 37.478C27.3097 37.0013 27.1814 36.4513 27.1814 35.828C27.1814 35.1973 27.3097 34.6437 27.5664 34.167C27.823 33.6903 28.1824 33.3237 28.6444 33.067C29.1064 32.8103 29.638 32.682 30.2394 32.682C30.8187 32.682 31.3357 32.8067 31.7904 33.056C32.2524 33.3053 32.608 33.661 32.8574 34.123C33.114 34.5777 33.2424 35.102 33.2424 35.696ZM31.6474 35.256C31.64 34.86 31.497 34.5447 31.2184 34.31C30.9397 34.068 30.5987 33.947 30.1954 33.947C29.814 33.947 29.4914 34.0643 29.2274 34.299C28.9707 34.5263 28.813 34.8453 28.7544 35.256H31.6474Z" fill="#53B175"/>
<path d="M7.375 10.5L17 0.875L26.625 10.5M24.875 8.75V17.5C24.875 17.9641 24.6906 18.4092 24.3624 18.7374C24.0342 19.0656 23.5891 19.25 23.125 19.25H10.875C10.4109 19.25 9.96575 19.0656 9.63756 18.7374C9.30937 18.4092 9.125 17.9641 9.125 17.5V8.75M14.375 19.25V12.25H19.625V19.25" stroke="#53B175" stroke-width="1.75" stroke-linecap="round" stroke-linejoin="round"/>
</svg>
