<svg width="32" height="41" viewBox="0 0 32 41" fill="none" xmlns="http://www.w3.org/2000/svg">
<path d="M4.4353 35.7333C3.71664 35.7333 3.05664 35.5646 2.4553 35.2272C1.85397 34.8899 1.3773 34.4242 1.0253 33.8302C0.673305 33.2289 0.497305 32.5506 0.497305 31.7952C0.497305 31.0472 0.673305 30.3762 1.0253 29.7822C1.3773 29.1809 1.85397 28.7116 2.4553 28.3742C3.05664 28.0369 3.71664 27.8682 4.4353 27.8682C5.1613 27.8682 5.8213 28.0369 6.4153 28.3742C7.01664 28.7116 7.48964 29.1809 7.8343 29.7822C8.18631 30.3762 8.36231 31.0472 8.36231 31.7952C8.36231 32.5506 8.18631 33.2289 7.8343 33.8302C7.48964 34.4242 7.01664 34.8899 6.4153 35.2272C5.81397 35.5646 5.15397 35.7333 4.4353 35.7333ZM4.4353 34.3582C4.8973 34.3582 5.3043 34.2556 5.6563 34.0502C6.00831 33.8376 6.28331 33.5369 6.48131 33.1482C6.6793 32.7596 6.7783 32.3086 6.7783 31.7952C6.7783 31.2819 6.6793 30.8346 6.48131 30.4532C6.28331 30.0646 6.00831 29.7676 5.6563 29.5622C5.3043 29.3569 4.8973 29.2542 4.4353 29.2542C3.9733 29.2542 3.56264 29.3569 3.2033 29.5622C2.8513 29.7676 2.5763 30.0646 2.3783 30.4532C2.1803 30.8346 2.0813 31.2819 2.0813 31.7952C2.0813 32.3086 2.1803 32.7596 2.3783 33.1482C2.5763 33.5369 2.8513 33.8376 3.2033 34.0502C3.56264 34.2556 3.9733 34.3582 4.4353 34.3582ZM11.048 30.5082C11.246 30.1856 11.5027 29.9326 11.818 29.7492C12.1407 29.5659 12.5074 29.4742 12.918 29.4742V31.0912H12.511C12.027 31.0912 11.6604 31.2049 11.411 31.4322C11.169 31.6596 11.048 32.0556 11.048 32.6202V35.6562H9.50802V29.5622H11.048V30.5082ZM13.5593 32.5872C13.5593 31.9712 13.6803 31.4249 13.9223 30.9482C14.1716 30.4716 14.509 30.1049 14.9343 29.8483C15.3596 29.5916 15.8326 29.4632 16.3533 29.4632C16.7493 29.4632 17.127 29.5512 17.4863 29.7272C17.8456 29.8959 18.1316 30.1232 18.3443 30.4092V27.5162H19.9063V35.6562H18.3443V34.7542C18.1536 35.0549 17.886 35.2969 17.5413 35.4802C17.1966 35.6636 16.797 35.7553 16.3423 35.7553C15.829 35.7553 15.3596 35.6233 14.9343 35.3592C14.509 35.0952 14.1716 34.7249 13.9223 34.2482C13.6803 33.7642 13.5593 33.2106 13.5593 32.5872ZM18.3553 32.6092C18.3553 32.2352 18.282 31.9162 18.1353 31.6522C17.9886 31.3809 17.7906 31.1756 17.5413 31.0362C17.292 30.8896 17.0243 30.8162 16.7383 30.8162C16.4523 30.8162 16.1883 30.8859 15.9463 31.0252C15.7043 31.1646 15.5063 31.3699 15.3523 31.6412C15.2056 31.9052 15.1323 32.2206 15.1323 32.5872C15.1323 32.9539 15.2056 33.2766 15.3523 33.5552C15.5063 33.8266 15.7043 34.0356 15.9463 34.1822C16.1956 34.3289 16.4596 34.4022 16.7383 34.4022C17.0243 34.4022 17.292 34.3326 17.5413 34.1932C17.7906 34.0466 17.9886 33.8412 18.1353 33.5772C18.282 33.3059 18.3553 32.9832 18.3553 32.6092ZM27.0754 32.4772C27.0754 32.6972 27.0607 32.8952 27.0314 33.0712H22.5764C22.613 33.5112 22.767 33.8559 23.0384 34.1052C23.3097 34.3546 23.6434 34.4792 24.0394 34.4792C24.6114 34.4792 25.0184 34.2336 25.2604 33.7422H26.9214C26.7454 34.3289 26.408 34.8129 25.9094 35.1942C25.4107 35.5682 24.7984 35.7553 24.0724 35.7553C23.4857 35.7553 22.9577 35.6269 22.4884 35.3702C22.0264 35.1062 21.6634 34.7359 21.3994 34.2592C21.1427 33.7826 21.0144 33.2326 21.0144 32.6092C21.0144 31.9786 21.1427 31.4249 21.3994 30.9482C21.656 30.4716 22.0154 30.1049 22.4774 29.8483C22.9394 29.5916 23.471 29.4632 24.0724 29.4632C24.6517 29.4632 25.1687 29.5879 25.6234 29.8372C26.0854 30.0866 26.441 30.4422 26.6904 30.9042C26.947 31.3589 27.0754 31.8832 27.0754 32.4772ZM25.4804 32.0372C25.473 31.6412 25.33 31.3259 25.0514 31.0912C24.7727 30.8492 24.4317 30.7282 24.0284 30.7282C23.647 30.7282 23.3244 30.8456 23.0604 31.0802C22.8037 31.3076 22.646 31.6266 22.5874 32.0372H25.4804ZM29.7394 30.5082C29.9374 30.1856 30.1941 29.9326 30.5094 29.7492C30.8321 29.5659 31.1988 29.4742 31.6094 29.4742V31.0912H31.2024C30.7184 31.0912 30.3518 31.2049 30.1024 31.4322C29.8604 31.6596 29.7394 32.0556 29.7394 32.6202V35.6562H28.1994V29.5622H29.7394V30.5082Z" fill="#181725"/>
<path d="M8.1875 4.15625V10.2812C8.1875 13.5809 8.18837 15.2302 9.213 16.2557C10.2376 17.2812 11.8879 17.2812 15.1875 17.2812H17.8125C21.1121 17.2812 22.7615 17.2804 23.787 16.2557C24.8125 15.2311 24.8125 13.5809 24.8125 10.2812V4.15625M8.1875 4.15625H24.8125M8.1875 4.15625L8.7125 3.45625C9.74325 2.0825 10.2586 1.39562 10.9971 1.0255C11.7365 0.65625 12.5949 0.65625 14.3125 0.65625H18.6875C20.4051 0.65625 21.2635 0.65625 22.0029 1.0255C22.7414 1.39562 23.2567 2.0825 24.2875 3.45625L24.8125 4.15625M11.25 14.2188H15.625M11.25 11.5938H13.875" stroke="black" stroke-width="1.3125" stroke-linecap="round" stroke-linejoin="round"/>
</svg>
