<svg width="35" height="42" viewBox="0 0 35 42" fill="none" xmlns="http://www.w3.org/2000/svg">
<path d="M14.3611 11.0648C14.4902 11.0167 14.629 10.9917 14.7693 10.9913C14.9097 10.9908 15.0487 11.015 15.1782 11.0622C15.3077 11.1095 15.425 11.179 15.5232 11.2665C15.6214 11.354 15.6985 11.4579 15.75 11.5719C15.8015 11.6859 15.8262 11.8077 15.8228 11.9302C15.8194 12.0527 15.7879 12.1733 15.7302 12.285C15.6724 12.3967 15.5896 12.4972 15.4867 12.5804C15.3837 12.6637 15.2627 12.7281 15.1307 12.7698C14.4288 13.0113 13.8264 13.4315 13.4019 13.9759C12.9774 14.5204 12.7503 15.1637 12.7504 15.8223V17.4173C12.7504 17.6604 12.861 17.8936 13.0579 18.0655C13.2548 18.2374 13.5219 18.334 13.8004 18.334H22.2003C22.4788 18.334 22.7458 18.2374 22.9428 18.0655C23.1397 17.8936 23.2503 17.6604 23.2503 17.4173V15.9076C23.2504 15.2278 23.0139 14.5641 22.5721 14.0044C22.1303 13.4447 21.5041 13.0154 20.7765 12.7735C20.6437 12.7333 20.5216 12.6702 20.4172 12.5879C20.3129 12.5057 20.2285 12.4061 20.1691 12.2949C20.1097 12.1837 20.0765 12.0632 20.0714 11.9405C20.0664 11.8179 20.0895 11.6957 20.1396 11.581C20.1897 11.4663 20.2656 11.3616 20.3629 11.2731C20.4601 11.1845 20.5768 11.1139 20.7059 11.0654C20.835 11.0169 20.974 10.9916 21.1145 10.9908C21.2551 10.9901 21.3943 11.014 21.5241 11.0612C22.6493 11.4353 23.6177 12.0991 24.301 12.9646C24.9843 13.8301 25.3502 14.8564 25.3503 15.9076V17.4173C25.3503 18.1467 25.0184 18.8461 24.4277 19.3619C23.8369 19.8776 23.0357 20.1673 22.2003 20.1673H13.8004C12.9649 20.1673 12.1637 19.8776 11.573 19.3619C10.9823 18.8461 10.6504 18.1467 10.6504 17.4173V15.8223C10.6505 14.7958 11.0045 13.7931 11.6663 12.9446C12.3281 12.0961 13.2671 11.4411 14.3611 11.0648ZM18.0003 1.83398C19.1142 1.83398 20.1825 2.22029 20.9702 2.90793C21.7578 3.59556 22.2003 4.52819 22.2003 5.50065V7.33398C22.2003 8.30645 21.7578 9.23908 20.9702 9.92671C20.1825 10.6143 19.1142 11.0007 18.0003 11.0007C16.8864 11.0007 15.8182 10.6143 15.0305 9.92671C14.2429 9.23908 13.8004 8.30645 13.8004 7.33398V5.50065C13.8004 4.52819 14.2429 3.59556 15.0305 2.90793C15.8182 2.22029 16.8864 1.83398 18.0003 1.83398ZM18.0003 3.66732C17.4434 3.66732 16.9092 3.86047 16.5154 4.20429C16.1216 4.54811 15.9004 5.01442 15.9004 5.50065V7.33398C15.9004 7.82021 16.1216 8.28653 16.5154 8.63035C16.9092 8.97416 17.4434 9.16732 18.0003 9.16732C18.5573 9.16732 19.0914 8.97416 19.4852 8.63035C19.8791 8.28653 20.1003 7.82021 20.1003 7.33398V5.50065C20.1003 5.01442 19.8791 4.54811 19.4852 4.20429C19.0914 3.86047 18.5573 3.66732 18.0003 3.66732Z" fill="#181725"/>
<path d="M6.4288 31.4812C6.4288 31.8919 6.3298 32.2769 6.1318 32.6362C5.94113 32.9955 5.6368 33.2852 5.2188 33.5052C4.80813 33.7252 4.28747 33.8352 3.6568 33.8352H2.3698V36.7832H0.829801V29.1052H3.6568C4.2508 29.1052 4.7568 29.2079 5.1748 29.4132C5.5928 29.6185 5.90447 29.9009 6.1098 30.2602C6.32247 30.6195 6.4288 31.0265 6.4288 31.4812ZM3.5908 32.5922C4.01613 32.5922 4.33147 32.4969 4.5368 32.3062C4.74213 32.1082 4.8448 31.8332 4.8448 31.4812C4.8448 30.7332 4.4268 30.3592 3.5908 30.3592H2.3698V32.5922H3.5908ZM9.06218 31.6352C9.26018 31.3125 9.51685 31.0595 9.83218 30.8762C10.1549 30.6929 10.5215 30.6012 10.9322 30.6012V32.2182H10.5252C10.0412 32.2182 9.67452 32.3319 9.42518 32.5592C9.18318 32.7865 9.06218 33.1825 9.06218 33.7472V36.7832H7.52218V30.6892H9.06218V31.6352ZM14.6754 36.8822C14.0888 36.8822 13.5608 36.7539 13.0914 36.4972C12.6221 36.2332 12.2518 35.8629 11.9804 35.3862C11.7164 34.9095 11.5844 34.3595 11.5844 33.7362C11.5844 33.1129 11.7201 32.5629 11.9914 32.0862C12.2701 31.6095 12.6478 31.2429 13.1244 30.9862C13.6011 30.7222 14.1328 30.5902 14.7194 30.5902C15.3061 30.5902 15.8378 30.7222 16.3144 30.9862C16.7911 31.2429 17.1651 31.6095 17.4364 32.0862C17.7151 32.5629 17.8544 33.1129 17.8544 33.7362C17.8544 34.3595 17.7114 34.9095 17.4254 35.3862C17.1468 35.8629 16.7654 36.2332 16.2814 36.4972C15.8048 36.7539 15.2694 36.8822 14.6754 36.8822ZM14.6754 35.5402C14.9541 35.5402 15.2144 35.4742 15.4564 35.3422C15.7058 35.2029 15.9038 34.9975 16.0504 34.7262C16.1971 34.4549 16.2704 34.1249 16.2704 33.7362C16.2704 33.1569 16.1164 32.7132 15.8084 32.4052C15.5078 32.0899 15.1374 31.9322 14.6974 31.9322C14.2574 31.9322 13.8871 32.0899 13.5864 32.4052C13.2931 32.7132 13.1464 33.1569 13.1464 33.7362C13.1464 34.3155 13.2894 34.7629 13.5754 35.0782C13.8688 35.3862 14.2354 35.5402 14.6754 35.5402ZM21.7781 31.9542H20.7111V36.7832H19.1491V31.9542H18.4561V30.6892H19.1491V30.3812C19.1491 29.6332 19.3618 29.0832 19.7871 28.7312C20.2124 28.3792 20.8541 28.2142 21.7121 28.2362V29.5342C21.3381 29.5269 21.0778 29.5892 20.9311 29.7212C20.7844 29.8532 20.7111 30.0915 20.7111 30.4362V30.6892H21.7781V31.9542ZM23.5571 29.9632C23.2858 29.9632 23.0584 29.8789 22.8751 29.7102C22.6991 29.5342 22.6111 29.3179 22.6111 29.0612C22.6111 28.8045 22.6991 28.5919 22.8751 28.4232C23.0584 28.2472 23.2858 28.1592 23.5571 28.1592C23.8284 28.1592 24.0521 28.2472 24.2281 28.4232C24.4114 28.5919 24.5031 28.8045 24.5031 29.0612C24.5031 29.3179 24.4114 29.5342 24.2281 29.7102C24.0521 29.8789 23.8284 29.9632 23.5571 29.9632ZM24.3161 30.6892V36.7832H22.7761V30.6892H24.3161ZM27.3776 28.6432V36.7832H25.8376V28.6432H27.3776ZM34.5641 33.6042C34.5641 33.8242 34.5495 34.0222 34.5201 34.1982H30.0651C30.1018 34.6382 30.2558 34.9829 30.5271 35.2322C30.7985 35.4815 31.1321 35.6062 31.5281 35.6062C32.1001 35.6062 32.5071 35.3605 32.7491 34.8692H34.4101C34.2341 35.4559 33.8968 35.9399 33.3981 36.3212C32.8995 36.6952 32.2871 36.8822 31.5611 36.8822C30.9745 36.8822 30.4465 36.7539 29.9771 36.4972C29.5151 36.2332 29.1521 35.8629 28.8881 35.3862C28.6315 34.9095 28.5031 34.3595 28.5031 33.7362C28.5031 33.1055 28.6315 32.5519 28.8881 32.0752C29.1448 31.5985 29.5041 31.2319 29.9661 30.9752C30.4281 30.7185 30.9598 30.5902 31.5611 30.5902C32.1405 30.5902 32.6575 30.7149 33.1121 30.9642C33.5741 31.2135 33.9298 31.5692 34.1791 32.0312C34.4358 32.4859 34.5641 33.0102 34.5641 33.6042ZM32.9691 33.1642C32.9618 32.7682 32.8188 32.4529 32.5401 32.2182C32.2615 31.9762 31.9205 31.8552 31.5171 31.8552C31.1358 31.8552 30.8131 31.9725 30.5491 32.2072C30.2925 32.4345 30.1348 32.7535 30.0761 33.1642H32.9691Z" fill="#181725"/>
</svg>
