<svg width="22" height="23" viewBox="0 0 22 23" fill="none" xmlns="http://www.w3.org/2000/svg">
<path fill-rule="evenodd" clip-rule="evenodd" d="M11.0572 0H10.9428C9.9539 0 9.13 4.91738e-08 8.4766 0.0880001C7.7858 0.1804 7.1621 0.385 6.6616 0.8855C6.16 1.3871 5.9554 2.0108 5.863 2.7005C5.8003 3.1702 5.7816 4.2911 5.7772 5.2525C3.553 5.3262 2.2165 5.5858 1.2892 6.5142C-1.3113e-07 7.8023 0 9.8769 0 14.025C0 18.1731 -1.3113e-07 20.2477 1.2892 21.5358C2.5784 22.8239 4.6519 22.825 8.8 22.825H13.2C17.3481 22.825 19.4227 22.825 20.7108 21.5358C21.9989 20.2466 22 18.1731 22 14.025C22 9.8769 22 7.8023 20.7108 6.5142C19.7835 5.5858 18.447 5.3262 16.2228 5.2536C16.2184 4.2911 16.2008 3.1702 16.137 2.7016C16.0446 2.0108 15.84 1.3871 15.3384 0.8866C14.8379 0.385 14.2142 0.1804 13.5234 0.0880001C12.87 4.91738e-08 12.045 0 11.0572 0ZM14.5728 5.2272C14.5673 4.2955 14.5519 3.2934 14.5024 2.9205C14.4331 2.4134 14.3154 2.1956 14.1724 2.0526C14.0294 1.9096 13.8116 1.7919 13.3034 1.7226C12.7732 1.6522 12.0604 1.65 11 1.65C9.9396 1.65 9.2268 1.6522 8.6955 1.7237C8.1884 1.7919 7.9706 1.9096 7.8276 2.0537C7.6846 2.1978 7.5669 2.4134 7.4976 2.9205C7.4481 3.2945 7.4316 4.2955 7.4272 5.2272C7.8584 5.225 8.316 5.22427 8.8 5.225H13.2C13.6855 5.225 14.1431 5.22573 14.5728 5.2272ZM11 8.8C11.2188 8.8 11.4286 8.88692 11.5834 9.04164C11.7381 9.19635 11.825 9.4062 11.825 9.625V9.636C13.0229 9.9374 14.025 10.8823 14.025 12.1913C14.025 12.4101 13.9381 12.6199 13.7834 12.7747C13.6286 12.9294 13.4188 13.0163 13.2 13.0163C12.9812 13.0163 12.7714 12.9294 12.6166 12.7747C12.4619 12.6199 12.375 12.4101 12.375 12.1913C12.375 11.7689 11.9064 11.1837 11 11.1837C10.0936 11.1837 9.625 11.7689 9.625 12.1913C9.625 12.6137 10.0936 13.2 11 13.2C12.5235 13.2 14.025 14.256 14.025 15.8587C14.025 17.1677 13.0229 18.1115 11.825 18.414V18.425C11.825 18.6438 11.7381 18.8536 11.5834 19.0084C11.4286 19.1631 11.2188 19.25 11 19.25C10.7812 19.25 10.5714 19.1631 10.4166 19.0084C10.2619 18.8536 10.175 18.6438 10.175 18.425V18.414C8.9771 18.1126 7.975 17.1677 7.975 15.8587C7.975 15.6399 8.06192 15.4301 8.21664 15.2753C8.37136 15.1206 8.5812 15.0337 8.8 15.0337C9.0188 15.0337 9.22865 15.1206 9.38336 15.2753C9.53808 15.4301 9.625 15.6399 9.625 15.8587C9.625 16.2811 10.0936 16.8663 11 16.8663C11.9064 16.8663 12.375 16.2811 12.375 15.8587C12.375 15.4363 11.9064 14.85 11 14.85C9.4765 14.85 7.975 13.794 7.975 12.1913C7.975 10.8823 8.9771 9.9374 10.175 9.636V9.625C10.175 9.4062 10.2619 9.19635 10.4166 9.04164C10.5714 8.88692 10.7812 8.8 11 8.8Z" fill="#008A00"/>
</svg>
