<svg width="21" height="20" viewBox="0 0 21 20" fill="none" xmlns="http://www.w3.org/2000/svg">
<path d="M13.2979 18.9957V14.2468C13.2979 13.9949 13.1978 13.7533 13.0197 13.5752C12.8416 13.3971 12.6 13.297 12.3481 13.297H8.54895C8.29705 13.297 8.05547 13.3971 7.87735 13.5752C7.69923 13.7533 7.59916 13.9949 7.59916 14.2468V18.9957M15.9326 8.84252C15.7346 8.65297 15.4711 8.54717 15.197 8.54717C14.9229 8.54717 14.6594 8.65297 14.4614 8.84252C14.0197 9.26376 13.4328 9.49877 12.8225 9.49877C12.2122 9.49877 11.6253 9.26376 11.1837 8.84252C10.9857 8.65325 10.7224 8.54763 10.4485 8.54763C10.1747 8.54763 9.91134 8.65325 9.71339 8.84252C9.2717 9.26404 8.68461 9.49923 8.07405 9.49923C7.4635 9.49923 6.87641 9.26404 6.43472 8.84252C6.23673 8.65297 5.97321 8.54717 5.69911 8.54717C5.42502 8.54717 5.1615 8.65297 4.9635 8.84252C4.5369 9.24961 3.97408 9.4834 3.3846 9.49839C2.79512 9.51338 2.22115 9.30849 1.77441 8.92361C1.32766 8.53872 1.04012 8.00138 0.967732 7.41617C0.895347 6.83095 1.0433 6.23974 1.3828 5.75761L4.12674 1.7837C4.30084 1.52679 4.53524 1.31645 4.80943 1.17108C5.08361 1.02571 5.38924 0.949726 5.69959 0.949783H15.1975C15.5069 0.949665 15.8117 1.02514 16.0853 1.16965C16.3589 1.31416 16.5931 1.52332 16.7675 1.77895L19.5171 5.76046C19.8567 6.24297 20.0044 6.83463 19.9316 7.42015C19.8588 8.00567 19.5705 8.54309 19.1231 8.9277C18.6756 9.31231 18.101 9.51656 17.5112 9.50063C16.9214 9.48471 16.3586 9.24976 15.9326 8.84157" stroke="#64006D" stroke-width="1.89957" stroke-linecap="round" stroke-linejoin="round"/>
<path d="M2.85022 9.45039V17.0962C2.85022 17.6 3.05035 18.0831 3.40659 18.4394C3.76283 18.7956 4.246 18.9958 4.74979 18.9958H16.1472C16.651 18.9958 17.1342 18.7956 17.4904 18.4394C17.8467 18.0831 18.0468 17.6 18.0468 17.0962V9.45039" stroke="#64006D" stroke-width="1.89957" stroke-linecap="round" stroke-linejoin="round"/>
</svg>
